<mxfile host="app.diagrams.net" agent="Mozilla/5.0 (X11; Ubuntu; Linux x86_64; rv:134.0) Gecko/20100101 Firefox/134.0" version="26.0.8">
  <diagram name="Page-1" id="u9_Md-NTKxFL0JPXrPMf">
    <mxGraphModel dx="949" dy="545" grid="1" gridSize="10" guides="1" tooltips="1" connect="1" arrows="1" fold="1" page="1" pageScale="1" pageWidth="850" pageHeight="1100" math="0" shadow="0">
      <root>
        <mxCell id="0" />
        <mxCell id="1" parent="0" />
        <mxCell id="iVeJYvW9ssngA844wOu2-4" value="" style="ellipse;whiteSpace=wrap;html=1;aspect=fixed;noLabel=0;overflow=visible;" parent="1" vertex="1">
          <mxGeometry x="425" y="120" width="340" height="340" as="geometry" />
        </mxCell>
        <mxCell id="iVeJYvW9ssngA844wOu2-1" value="" style="outlineConnect=0;dashed=0;verticalLabelPosition=bottom;verticalAlign=top;align=center;html=1;shape=mxgraph.aws3.api_gateway;fillColor=#D9A741;gradientColor=none;" parent="1" vertex="1">
          <mxGeometry x="210" y="210" width="76.5" height="93" as="geometry" />
        </mxCell>
        <mxCell id="iVeJYvW9ssngA844wOu2-2" value="" style="outlineConnect=0;dashed=0;verticalLabelPosition=bottom;verticalAlign=top;align=center;html=1;shape=mxgraph.aws3.lambda_function;fillColor=#F58534;gradientColor=none;" parent="1" vertex="1">
          <mxGeometry x="560.5" y="210" width="69" height="72" as="geometry" />
        </mxCell>
        <mxCell id="iVeJYvW9ssngA844wOu2-3" value="" style="image;sketch=0;aspect=fixed;html=1;points=[];align=center;fontSize=12;image=img/lib/mscae/Docker.svg;" parent="1" vertex="1">
          <mxGeometry x="550" y="350" width="109.76" height="90" as="geometry" />
        </mxCell>
        <mxCell id="J74Sf37dvSkozefG90Eq-2" value="" style="endArrow=classic;startArrow=classic;html=1;rounded=0;" edge="1" parent="1">
          <mxGeometry width="50" height="50" relative="1" as="geometry">
            <mxPoint x="290" y="250" as="sourcePoint" />
            <mxPoint x="560" y="250" as="targetPoint" />
          </mxGeometry>
        </mxCell>
        <mxCell id="J74Sf37dvSkozefG90Eq-4" value="" style="sketch=0;outlineConnect=0;fontColor=#232F3E;gradientColor=none;fillColor=#232F3D;strokeColor=none;dashed=0;verticalLabelPosition=bottom;verticalAlign=top;align=center;html=1;fontSize=12;fontStyle=0;aspect=fixed;pointerEvents=1;shape=mxgraph.aws4.client;" vertex="1" parent="1">
          <mxGeometry x="20" y="218.5" width="78" height="76" as="geometry" />
        </mxCell>
        <mxCell id="J74Sf37dvSkozefG90Eq-5" value="" style="endArrow=classic;startArrow=classic;html=1;rounded=0;" edge="1" parent="1">
          <mxGeometry width="50" height="50" relative="1" as="geometry">
            <mxPoint x="98" y="245.66" as="sourcePoint" />
            <mxPoint x="200" y="245.66" as="targetPoint" />
          </mxGeometry>
        </mxCell>
      </root>
    </mxGraphModel>
  </diagram>
</mxfile>
